<?xml version="1.0" encoding="UTF-8" standalone="no"?>
<svg width="68px" height="44px" viewBox="0 0 68 44" version="1.1" xmlns="http://www.w3.org/2000/svg" xmlns:xlink="http://www.w3.org/1999/xlink">
    <!-- Generator: Sketch 39.1 (31720) - http://www.bohemiancoding.com/sketch -->
    <title>Cloud 2</title>
    <desc>Created with Sketch.</desc>
    <defs></defs>
    <g id="Wireframes" stroke="none" stroke-width="1" fill="none" fill-rule="evenodd">
        <g id="Home-Page" transform="translate(-754.000000, -365.000000)" stroke="#A4E8D5">
            <path d="M771.240587,383.791019 C770.710488,382.580857 769.531713,379.415951 770.527394,375.75059 C771.981681,370.400766 776.987986,367.945567 778.185942,367.417211 C778.506792,367.275967 778.756148,367.180061 778.902623,367.122517 C780.173816,366.622061 786.493164,364.370881 791.7,368.144355 C792.0906,368.425098 796.362786,371.67196 796.523211,376.901465 C796.565061,378.313902 796.28083,379.501395 796.022755,380.310495 C796.376736,377.525727 798.336711,375.30419 800.866891,374.737471 C804.472965,373.930115 807.029302,376.99214 807.170546,377.166515 C809.059026,379.501395 809.181089,383.018538 807.409439,385.899212 C808.018008,385.594056 811.317182,384.012475 814.928487,385.41445 C818.009693,386.612406 819.355867,389.221055 820.02198,390.509686 C821.769217,393.89256 821.368154,397.074903 821.233885,398.028734 C821.090898,399.047083 820.522436,403.103045 817.109918,405.790163 C815.158662,407.326406 813.127194,407.744906 812.016426,407.973337 C810.161076,408.353474 809.676314,407.786756 804.499122,407.706543 C802.720497,407.678643 800.940129,407.43975 799.161504,407.43975 C796.903349,407.43975 795.227605,407.403131 793.633818,407.43975 C790.210838,407.518218 790.017282,407.518218 786.793089,407.584481 C785.980502,407.600175 786.140927,407.43975 781.213091,407.43975 L775.877217,407.43975 C771.6835,407.43975 770.937175,407.507756 769.221325,407.43975 C765.283939,407.281068 763.31699,407.2026 761.81039,406.517306 C757.893929,404.735194 756.307117,400.764676 755.989754,399.967783 C755.457911,398.637302 753.93213,394.168072 756.232135,389.782542 C756.565192,389.146074 758.139797,386.143337 761.325628,384.931431 C761.728434,384.777981 762.359671,384.575706 766.176739,384.202544 C768.291907,383.996781 770.042631,383.869488 771.240587,383.791019 L771.240587,383.791019 Z" id="Cloud-2" transform="translate(788.185083, 387.051659) scale(-1, 1) translate(-788.185083, -387.051659) "></path>
        </g>
    </g>
</svg>