<?xml version="1.0" encoding="UTF-8" standalone="no"?>
<svg width="68px" height="44px" viewBox="0 0 68 44" version="1.1" xmlns="http://www.w3.org/2000/svg" xmlns:xlink="http://www.w3.org/1999/xlink">
    <!-- Generator: Sketch 39.1 (31720) - http://www.bohemiancoding.com/sketch -->
    <title>Cloud 3</title>
    <desc>Created with Sketch.</desc>
    <defs></defs>
    <g id="Wireframes" stroke="none" stroke-width="1" fill="none" fill-rule="evenodd">
        <g id="Home-Page" transform="translate(-940.000000, -302.000000)" stroke="#A4E8D5">
            <path d="M957.240587,320.791019 C956.710488,319.580857 955.531713,316.415951 956.527394,312.75059 C957.981681,307.400766 962.987986,304.945567 964.185942,304.417211 C964.506792,304.275967 964.756148,304.180061 964.902623,304.122517 C966.173816,303.622061 972.493164,301.370881 977.7,305.144355 C978.0906,305.425098 982.362786,308.67196 982.523211,313.901465 C982.565061,315.313902 982.28083,316.501395 982.022755,317.310495 C982.376736,314.525727 984.336711,312.30419 986.866891,311.737471 C990.472965,310.930115 993.029302,313.99214 993.170546,314.166515 C995.059026,316.501395 995.181089,320.018538 993.409439,322.899212 C994.018008,322.594056 997.317182,321.012475 1000.92849,322.41445 C1004.00969,323.612406 1005.35587,326.221055 1006.02198,327.509686 C1007.76922,330.89256 1007.36815,334.074903 1007.23389,335.028734 C1007.0909,336.047083 1006.52244,340.103045 1003.10992,342.790163 C1001.15866,344.326406 999.127194,344.744906 998.016426,344.973337 C996.161076,345.353474 995.676314,344.786756 990.499122,344.706543 C988.720497,344.678643 986.940129,344.43975 985.161504,344.43975 C982.903349,344.43975 981.227605,344.403131 979.633818,344.43975 C976.210838,344.518218 976.017282,344.518218 972.793089,344.584481 C971.980502,344.600175 972.140927,344.43975 967.213091,344.43975 L961.877217,344.43975 C957.6835,344.43975 956.937175,344.507756 955.221325,344.43975 C951.283939,344.281068 949.31699,344.2026 947.81039,343.517306 C943.893929,341.735194 942.307117,337.764676 941.989754,336.967783 C941.457911,335.637302 939.93213,331.168072 942.232135,326.782542 C942.565192,326.146074 944.139797,323.143337 947.325628,321.931431 C947.728434,321.777981 948.359671,321.575706 952.176739,321.202544 C954.291907,320.996781 956.042631,320.869488 957.240587,320.791019 L957.240587,320.791019 Z" id="Cloud-3"></path>
        </g>
    </g>
</svg>