<?xml version="1.0" encoding="UTF-8" standalone="no"?>
<svg width="75px" height="44px" viewBox="0 0 75 44" version="1.1" xmlns="http://www.w3.org/2000/svg" xmlns:xlink="http://www.w3.org/1999/xlink">
    <!-- Generator: Sketch 39.1 (31720) - http://www.bohemiancoding.com/sketch -->
    <title>Cloud 1</title>
    <desc>Created with Sketch.</desc>
    <defs></defs>
    <g id="Wireframes" stroke="none" stroke-width="1" fill="none" fill-rule="evenodd">
        <g id="Home-Page" transform="translate(-507.000000, -323.000000)" stroke="#A4E8D5">
            <path d="M523.527394,333.75059 C524.981681,328.400766 529.987986,325.945567 531.185942,325.417211 C531.506792,325.275967 531.756148,325.180061 531.902623,325.122517 C533.173816,324.622061 539.493164,322.370881 544.7,326.144355 C545.0906,326.425098 549.362786,329.67196 549.523211,334.901465 C549.565061,336.313902 549.28083,337.501395 549.022755,338.310495 C549.376736,335.525727 551.336711,333.30419 553.866891,332.737471 C557.472965,331.930115 560.029302,334.99214 560.170546,335.166515 C562.059026,337.501395 562.181089,341.018538 560.409439,343.899212 C561.018008,343.594056 564.134285,341.791019 568.5,341.791019 C570,341.791019 571.907133,341.484418 576,344.990852 C580.092867,348.497287 579.566367,348.141045 581,352.5 C581.602493,354.331877 581.620926,356.93636 581,359 C580.182223,361.71787 578.456958,363.76377 577.5,364.517307 C575.548744,366.053551 567,366 565.016426,365.973337 C563.049532,365.946898 562.676314,365.786756 557.499122,365.706543 C555.720497,365.678643 553.940129,365.43975 552.161504,365.43975 C549.903349,365.43975 548.227605,365.403131 546.633818,365.43975 C543.210838,365.518218 543.017282,365.518218 539.793089,365.584481 C538.980502,365.600175 539.140927,365.43975 534.213091,365.43975 L528.877217,365.43975 C524.6835,365.43975 523.937175,365.507756 522.221325,365.43975 C518.283939,365.281068 516.31699,365.2026 514.81039,364.517306 C510.893929,362.735194 509.307117,358.764676 508.989754,357.967783 C508.457911,356.637302 506.93213,352.168072 509.232135,347.782542 C509.565192,347.146074 511.139797,344.143337 514.325628,342.931431 C514.728434,342.777981 515.359671,342.575706 519.176739,342.202544 C521.291907,341.996781 523.042631,341.869488 524.240587,341.791019 C523.710488,340.580857 522.531713,337.415951 523.527394,333.75059 Z" id="Cloud-1"></path>
        </g>
    </g>
</svg>