<?xml version="1.0" encoding="UTF-8" standalone="no"?>
<svg width="82px" height="116px" viewBox="0 0 82 116" version="1.1" xmlns="http://www.w3.org/2000/svg" xmlns:xlink="http://www.w3.org/1999/xlink">
    <!-- Generator: Sketch 39.1 (31720) - http://www.bohemiancoding.com/sketch -->
    <title>Logo</title>
    <desc>Created with Sketch.</desc>
    <defs></defs>
    <g id="Wireframes" stroke="none" stroke-width="1" fill="none" fill-rule="evenodd">
        <g id="Logo">
            <g>
                <g id="Page-1">
                    <polygon id="Fill-1" fill="#A4E8D5" points="13.7763857 16.5001286 29.6335286 16.5001286 33.6908143 83.3572714 10.3478143 83.3572714"></polygon>
                    <polygon id="Stroke-2" stroke="#F7F7FF" points="29.6335286 16.5001286 33.6908143 83.3572714 10.3478143 83.3572714 13.7763857 16.5001286"></polygon>
                    <path d="M18.9192857,0.000128571428 L18.9192857,16.7144143 L18.9192857,0.000128571428 Z" id="Fill-4" fill="#FFFFFF"></path>
                    <polygon id="Rectangle" fill="#A4E8D5" transform="translate(44.500000, 60.500000) scale(-1, 1) translate(-44.500000, -60.500000) " points="38.5 49 50.5 38 50.5 83 38.5 83"></polygon>
                    <path d="M18.2763,0.000128571428 L18.2763,16.7144143 L18.2763,0.000128571428 Z" id="Fill-5" fill="#000000"></path>
                    <path d="M18.2763857,0.000128571428 L18.2763857,16.7144143" id="Stroke-6" stroke="#F7F7FF"></path>
                    <path d="M25.1335286,0.000128571428 L25.1335286,16.7144143 L25.1335286,0.000128571428 Z" id="Fill-8" fill="#000000"></path>
                    <polygon id="Rectangle" fill="#A4E8D5" points="51 49 63 38 63 83 51 83"></polygon>
                    <path d="M25.1335286,0.000128571428 L25.1335286,16.7144143" id="Stroke-9" stroke="#F7F7FF"></path>
                    <path d="M62.8479,83.1431571 L62.8479,38.1431571 L62.8479,83.1431571 Z" id="Fill-11" fill="#FFFFFF"></path>
                    <path d="M62.8478143,83.1429857 L62.8478143,38.1429857" id="Stroke-12" stroke="#F7F7FF"></path>
                    <path d="M38.4190714,83.1431571 L38.4190714,38.1431571 L38.4190714,83.1431571 Z" id="Fill-14" fill="#000000"></path>
                    <path d="M38.4192429,38.1429857 L38.4192429,83.1429857" id="Stroke-15" stroke="#F7F7FF"></path>
                    <path d="M0.00115714286,83.5832571 L80.6355857,83.0805429 L0.00115714286,83.5832571 Z" id="Fill-17" fill="#000000"></path>
                    <path d="M80.6356286,83.0807571 L0.0012,83.5834714" id="Stroke-18" stroke="#F7F7FF"></path>
                    <path d="M50.8479429,83.1431571 L50.8479429,48.4288714 L50.8479429,83.1431571 Z" id="Fill-20" fill="#000000"></path>
                    <path d="M50.8478143,48.4287 L50.8478143,83.1429857" id="Stroke-21" stroke="#F7F7FF"></path>
                    <polygon id="Fill-23" fill="#A4E8D5" points="38.2498714 38.1218571 50.6073 49.2711429 62.6784429 38.1218571 50.4641571 26.7762857"></polygon>
                    <polygon id="Stroke-24" stroke="#F7F7FF" points="50.6073 49.2711429 62.6784429 38.1218571 50.4641571 26.7762857 38.2498714 38.1218571"></polygon>
                    <g id="Group-29" transform="translate(23.000000, 68.000000)">
                        <path d="M3.97997143,14.5119429 C5.86268571,14.5020857 6.36111429,13.3582286 9.34697143,11.9276571 C11.0522571,11.1108 12.1639714,10.5785143 13.7201143,10.5365143 C15.9019714,10.4778 17.7088286,11.4176571 18.6894,11.9276571 C20.5125429,12.8765143 20.6886857,13.5112286 22.4659714,14.1142286 C23.5502571,14.4823714 24.7819714,14.9006571 25.8452571,14.3130857 C26.8974,13.7319429 27.2008286,12.4895143 27.4352571,11.5303714 C27.5471143,11.0735143 27.9602571,9.28251429 27.2364,7.35608571 C26.3642571,5.03451429 24.3769714,3.94294286 22.2671143,2.78408571 C20.3702571,1.74222857 17.5755429,0.207514286 13.7201143,0.399085714 C10.6301143,0.552085714 8.54082857,1.73065714 5.96768571,3.1818 C2.82882857,4.95222857 1.71411429,6.49208571 1.19725714,7.35608571 C0.277971429,8.89122857 0.203828571,10.0299429 0.2034,10.5365143 C0.202542857,11.1360857 0.200828571,12.5233714 1.19725714,13.5180857 C2.20182857,14.5213714 3.60882857,14.5140857 3.97997143,14.5119429" id="Fill-25" fill="#A4E8D5"></path>
                        <path d="M3.97997143,14.5119429 C5.86268571,14.5020857 6.36111429,13.3582286 9.34697143,11.9276571 C11.0522571,11.1108 12.1639714,10.5785143 13.7201143,10.5365143 C15.9019714,10.4778 17.7088286,11.4176571 18.6894,11.9276571 C20.5125429,12.8765143 20.6886857,13.5112286 22.4659714,14.1142286 C23.5502571,14.4823714 24.7819714,14.9006571 25.8452571,14.3130857 C26.8974,13.7319429 27.2008286,12.4895143 27.4352571,11.5303714 C27.5471143,11.0735143 27.9602571,9.28251429 27.2364,7.35608571 C26.3642571,5.03451429 24.3769714,3.94294286 22.2671143,2.78408571 C20.3702571,1.74222857 17.5755429,0.207514286 13.7201143,0.399085714 C10.6301143,0.552085714 8.54082857,1.73065714 5.96768571,3.1818 C2.82882857,4.95222857 1.71411429,6.49208571 1.19725714,7.35608571 C0.277971429,8.89122857 0.203828571,10.0299429 0.2034,10.5365143 C0.202542857,11.1360857 0.200828571,12.5233714 1.19725714,13.5180857 C2.20182857,14.5213714 3.60882857,14.5140857 3.97997143,14.5119429 L3.97997143,14.5119429 Z" id="Stroke-27" stroke="#F7F7FF"></path>
                    </g>
                </g>
                <text id="Chicago-Software-Cra" font-family="RiftSoft-Medium, Rift Soft" font-size="12" font-weight="400" letter-spacing="0.126666665" fill="#F7F7FF">
                    <tspan x="2.06190478" y="99.5714286">Chicago Software </tspan>
                    <tspan x="8.44723811" y="114.571429">Craftsmanship</tspan>
                </text>
            </g>
        </g>
    </g>
</svg>