<?xml version="1.0" encoding="UTF-8" standalone="no"?>
<svg width="799px" height="181px" viewBox="0 0 799 181" version="1.1" xmlns="http://www.w3.org/2000/svg" xmlns:xlink="http://www.w3.org/1999/xlink">
    <!-- Generator: Sketch 39.1 (31720) - http://www.bohemiancoding.com/sketch -->
    <title>Skyline</title>
    <desc>Created with Sketch.</desc>
    <defs></defs>
    <g id="Wireframes" stroke="none" stroke-width="1" fill="none" fill-rule="evenodd">
        <g id="Home-Page" transform="translate(-359.000000, -592.000000)">
            <g id="Skyline" transform="translate(360.000000, 592.000000)">
                <g id="Oprah's-Building" transform="translate(556.000000, 102.000000)" stroke="#A4E8D5">
                    <polygon id="Stroke-17" points="0.7776 15.8464 14.9156 34.8214 30.1706 15.8464 15.4746 0.2194"></polygon>
                    <polyline id="Stroke-18" points="0.7776 15.8464 0.9996 77.4994 30.4996 77.4994 30.4996 19.9994"></polyline>
                </g>
                <polygon id="Stroke-34" stroke="#A4E8D5" points="346 179.510024 358.698 179.510024 358.698 79.1500244 346 79.1500244"></polygon>
                <g id="Building-3" transform="translate(396.000000, 102.000000)" stroke="#A4E8D5">
                    <polyline id="Stroke-3" points="5.37885009 13 5.377 5 18.5428223 5 48.854 5 48.854 13.5"></polyline>
                    <polyline id="Stroke-3" points="5.37885009 33 5.377 25 18.5428223 25 48.854 25 48.854 33.5"></polyline>
                    <polyline id="Stroke-3" points="5.37885009 43 5.377 35 18.5428223 35 48.854 35 48.854 43.5"></polyline>
                    <polyline id="Stroke-3" points="5.37885009 53 5.377 45 18.5428223 45 48.854 45 48.854 53.5"></polyline>
                    <polyline id="Stroke-3" points="5.37885009 63 5.377 55 18.5428223 55 48.854 55 48.854 63.5"></polyline>
                    <polyline id="Stroke-3" points="5.37885009 73 5.377 65 18.5428223 65 48.854 65 48.854 73.5"></polyline>
                    <polyline id="Stroke-3" points="5.37885009 23 5.377 15 18.5428223 15 48.854 15 48.854 23.5"></polyline>
                    <polygon id="Stroke-36" points="0.565 77.5 53.666 77.5 53.666 0.22 0.565 0.22"></polygon>
                </g>
                <g id="Building-5" transform="translate(253.000000, 93.500000)" stroke="#A4E8D5">
                    <polygon id="Stroke-38" points="0 85.927 52.235 85.927 52.235 0 0 0"></polygon>
                    <g id="Group" transform="translate(7.000000, 7.000000)">
                        <polygon id="Stroke-49" points="0 3.86 7.72 3.86 7.72 0 0 0"></polygon>
                        <polygon id="Stroke-49" points="10 3.86 17.72 3.86 17.72 0 10 0"></polygon>
                        <polygon id="Stroke-49" points="20 3.86 27.72 3.86 27.72 0 20 0"></polygon>
                        <polygon id="Stroke-49" points="30 3.86 37.72 3.86 37.72 0 30 0"></polygon>
                    </g>
                    <g id="Group" transform="translate(7.000000, 17.000000)">
                        <polygon id="Stroke-49" points="0 3.86 7.72 3.86 7.72 0 0 0"></polygon>
                        <polygon id="Stroke-49" points="10 3.86 17.72 3.86 17.72 0 10 0"></polygon>
                        <polygon id="Stroke-49" points="20 3.86 27.72 3.86 27.72 0 20 0"></polygon>
                        <polygon id="Stroke-49" points="30 3.86 37.72 3.86 37.72 0 30 0"></polygon>
                    </g>
                    <g id="Group" transform="translate(7.000000, 37.000000)">
                        <polygon id="Stroke-49" points="0 3.86 7.72 3.86 7.72 0 0 0"></polygon>
                        <polygon id="Stroke-49" points="10 3.86 17.72 3.86 17.72 0 10 0"></polygon>
                        <polygon id="Stroke-49" points="20 3.86 27.72 3.86 27.72 0 20 0"></polygon>
                        <polygon id="Stroke-49" points="30 3.86 37.72 3.86 37.72 0 30 0"></polygon>
                    </g>
                    <g id="Group" transform="translate(7.000000, 47.000000)">
                        <polygon id="Stroke-49" points="0 3.86 7.72 3.86 7.72 0 0 0"></polygon>
                        <polygon id="Stroke-49" points="10 3.86 17.72 3.86 17.72 0 10 0"></polygon>
                        <polygon id="Stroke-49" points="20 3.86 27.72 3.86 27.72 0 20 0"></polygon>
                        <polygon id="Stroke-49" points="30 3.86 37.72 3.86 37.72 0 30 0"></polygon>
                    </g>
                    <g id="Group" transform="translate(7.000000, 67.000000)">
                        <polygon id="Stroke-49" points="0 3.86 7.72 3.86 7.72 0 0 0"></polygon>
                        <polygon id="Stroke-49" points="10 3.86 17.72 3.86 17.72 0 10 0"></polygon>
                        <polygon id="Stroke-49" points="20 3.86 27.72 3.86 27.72 0 20 0"></polygon>
                        <polygon id="Stroke-49" points="30 3.86 37.72 3.86 37.72 0 30 0"></polygon>
                    </g>
                    <g id="Group" transform="translate(7.000000, 77.000000)">
                        <polygon id="Stroke-49" points="0 3.86 7.72 3.86 7.72 0 0 0"></polygon>
                        <polygon id="Stroke-49" points="10 3.86 17.72 3.86 17.72 0 10 0"></polygon>
                        <polygon id="Stroke-49" points="20 3.86 27.72 3.86 27.72 0 20 0"></polygon>
                        <polygon id="Stroke-49" points="30 3.86 37.72 3.86 37.72 0 30 0"></polygon>
                    </g>
                </g>
                <g id="Building-1" transform="translate(31.000000, 86.500000)" stroke="#A4E8D5">
                    <polygon id="Stroke-38" points="0 92.927 52.235 92.927 52.235 0 0 0"></polygon>
                    <g id="Group" transform="translate(7.000000, 4.000000)">
                        <polygon id="Stroke-49" points="0 3.86 7.72 3.86 7.72 0 0 0"></polygon>
                        <polygon id="Stroke-49" points="10 3.86 17.72 3.86 17.72 0 10 0"></polygon>
                        <polygon id="Stroke-49" points="20 3.86 27.72 3.86 27.72 0 20 0"></polygon>
                        <polygon id="Stroke-49" points="30 3.86 37.72 3.86 37.72 0 30 0"></polygon>
                    </g>
                    <g id="Group" transform="translate(7.000000, 14.000000)">
                        <polygon id="Stroke-49" points="0 3.86 7.72 3.86 7.72 0 0 0"></polygon>
                        <polygon id="Stroke-49" points="10 3.86 17.72 3.86 17.72 0 10 0"></polygon>
                        <polygon id="Stroke-49" points="20 3.86 27.72 3.86 27.72 0 20 0"></polygon>
                        <polygon id="Stroke-49" points="30 3.86 37.72 3.86 37.72 0 30 0"></polygon>
                    </g>
                    <g id="Group" transform="translate(7.000000, 24.000000)">
                        <polygon id="Stroke-49" points="0 3.86 7.72 3.86 7.72 0 0 0"></polygon>
                        <polygon id="Stroke-49" points="10 3.86 17.72 3.86 17.72 0 10 0"></polygon>
                        <polygon id="Stroke-49" points="20 3.86 27.72 3.86 27.72 0 20 0"></polygon>
                        <polygon id="Stroke-49" points="30 3.86 37.72 3.86 37.72 0 30 0"></polygon>
                    </g>
                    <g id="Group" transform="translate(7.000000, 34.000000)">
                        <polygon id="Stroke-49" points="0 3.86 7.72 3.86 7.72 0 0 0"></polygon>
                        <polygon id="Stroke-49" points="10 3.86 17.72 3.86 17.72 0 10 0"></polygon>
                        <polygon id="Stroke-49" points="20 3.86 27.72 3.86 27.72 0 20 0"></polygon>
                        <polygon id="Stroke-49" points="30 3.86 37.72 3.86 37.72 0 30 0"></polygon>
                    </g>
                    <g id="Group" transform="translate(7.000000, 44.000000)">
                        <polygon id="Stroke-49" points="0 3.86 7.72 3.86 7.72 0 0 0"></polygon>
                        <polygon id="Stroke-49" points="10 3.86 17.72 3.86 17.72 0 10 0"></polygon>
                        <polygon id="Stroke-49" points="20 3.86 27.72 3.86 27.72 0 20 0"></polygon>
                        <polygon id="Stroke-49" points="30 3.86 37.72 3.86 37.72 0 30 0"></polygon>
                    </g>
                    <g id="Group" transform="translate(7.000000, 54.000000)">
                        <polygon id="Stroke-49" points="0 3.86 7.72 3.86 7.72 0 0 0"></polygon>
                        <polygon id="Stroke-49" points="10 3.86 17.72 3.86 17.72 0 10 0"></polygon>
                        <polygon id="Stroke-49" points="20 3.86 27.72 3.86 27.72 0 20 0"></polygon>
                        <polygon id="Stroke-49" points="30 3.86 37.72 3.86 37.72 0 30 0"></polygon>
                    </g>
                    <g id="Group" transform="translate(7.000000, 64.000000)">
                        <polygon id="Stroke-49" points="0 3.86 7.72 3.86 7.72 0 0 0"></polygon>
                        <polygon id="Stroke-49" points="10 3.86 17.72 3.86 17.72 0 10 0"></polygon>
                        <polygon id="Stroke-49" points="20 3.86 27.72 3.86 27.72 0 20 0"></polygon>
                        <polygon id="Stroke-49" points="30 3.86 37.72 3.86 37.72 0 30 0"></polygon>
                    </g>
                    <g id="Group" transform="translate(7.000000, 74.000000)">
                        <polygon id="Stroke-49" points="0 3.86 7.72 3.86 7.72 0 0 0"></polygon>
                        <polygon id="Stroke-49" points="10 3.86 17.72 3.86 17.72 0 10 0"></polygon>
                        <polygon id="Stroke-49" points="20 3.86 27.72 3.86 27.72 0 20 0"></polygon>
                        <polygon id="Stroke-49" points="30 3.86 37.72 3.86 37.72 0 30 0"></polygon>
                    </g>
                    <g id="Group" transform="translate(7.000000, 84.000000)">
                        <polygon id="Stroke-49" points="0 3.86 7.72 3.86 7.72 0 0 0"></polygon>
                        <polygon id="Stroke-49" points="10 3.86 17.72 3.86 17.72 0 10 0"></polygon>
                        <polygon id="Stroke-49" points="20 3.86 27.72 3.86 27.72 0 20 0"></polygon>
                        <polygon id="Stroke-49" points="30 3.86 37.72 3.86 37.72 0 30 0"></polygon>
                    </g>
                </g>
                <polygon id="Stroke-54" stroke="#A4E8D5" points="518 179.373 537.954 179.373 537.954 101.5 518 101.5"></polygon>
                <polygon id="Stroke-56" stroke="#A4E8D5" points="466 179.481 494.126 179.481 494.126 114 466 114"></polygon>
                <polygon id="Stroke-57" stroke="#A4E8D5" points="496 179.417 516.894 179.417 516.894 127 496 127"></polygon>
                <polygon id="Stroke-58" stroke="#A4E8D5" points="538 179.5 556 179.5 556 84.5 538 84.5"></polygon>
                <polygon id="Stroke-59" stroke="#A4E8D5" points="450 179.545 465.268 179.545 465.268 132 450 132"></polygon>
                <polygon id="Stroke-85" stroke="#A4E8D5" points="306 179.463 345.473 179.463 345.473 133 306 133"></polygon>
                <polygon id="Stroke-87" stroke="#A4E8D5" points="308 167.728 343.458 167.728 343.458 161 308 161"></polygon>
                <polygon id="Stroke-90" stroke="#A4E8D5" points="322 179.402 331.849 179.402 331.849 173 322 173"></polygon>
                <g id="Building-5" transform="translate(189.000000, 109.500000)" stroke="#A4E8D5">
                    <polygon id="Stroke-91" points="0 69.996 25.116 69.996 25.116 11 0 11"></polygon>
                    <g id="Group-2" transform="translate(3.000000, 38.000000)">
                        <polygon id="Stroke-93" points="0.251 3.663 3.615 3.663 3.615 0.299 0.251 0.299"></polygon>
                        <polygon id="Stroke-93" points="10.251 3.663 13.615 3.663 13.615 0.299 10.251 0.299"></polygon>
                        <polygon id="Stroke-93" points="5.251 3.663 8.615 3.663 8.615 0.299 5.251 0.299"></polygon>
                        <polygon id="Stroke-93" points="15.251 3.663 18.615 3.663 18.615 0.299 15.251 0.299"></polygon>
                    </g>
                    <g id="Group-2" transform="translate(3.000000, 18.000000)">
                        <polygon id="Stroke-93" points="0.251 3.663 3.615 3.663 3.615 0.299 0.251 0.299"></polygon>
                        <polygon id="Stroke-93" points="10.251 3.663 13.615 3.663 13.615 0.299 10.251 0.299"></polygon>
                        <polygon id="Stroke-93" points="5.251 3.663 8.615 3.663 8.615 0.299 5.251 0.299"></polygon>
                        <polygon id="Stroke-93" points="15.251 3.663 18.615 3.663 18.615 0.299 15.251 0.299"></polygon>
                    </g>
                    <g id="Group-2" transform="translate(3.000000, 58.000000)">
                        <polygon id="Stroke-93" points="0.251 3.663 3.615 3.663 3.615 0.299 0.251 0.299"></polygon>
                        <polygon id="Stroke-93" points="10.251 3.663 13.615 3.663 13.615 0.299 10.251 0.299"></polygon>
                        <polygon id="Stroke-93" points="5.251 3.663 8.615 3.663 8.615 0.299 5.251 0.299"></polygon>
                        <polygon id="Stroke-93" points="15.251 3.663 18.615 3.663 18.615 0.299 15.251 0.299"></polygon>
                    </g>
                    <polygon id="Stroke-94" points="2.251 10.503 22.689 10.503 22.689 5.578 2.251 5.578"></polygon>
                    <polygon id="Stroke-95" points="6.615 5.332 9.653 5.332 9.653 0.9 6.615 0.9"></polygon>
                    <polygon id="Stroke-96" points="15.04 5.332 17.995 5.332 17.995 0.9 15.04 0.9"></polygon>
                </g>
                <polygon id="Stroke-97" stroke="#A4E8D5" points="138 179.507 188.232 179.507 188.232 147 138 147"></polygon>
                <polygon id="Stroke-100" stroke="#A4E8D5" points="360 179.5 396 179.5 396 93.5 360 93.5"></polygon>
                <polygon id="Stroke-101" stroke="#A4E8D5" points="216 179.5 250 179.5 250 64.5 216 64.5"></polygon>
                <g id="Building-2" transform="translate(85.000000, 150.000000)" stroke="#A4E8D5">
                    <polygon id="Stroke-102" points="0.187 29.5 19.363 29.5 19.363 0.956 0.187 0.956"></polygon>
                    <polygon id="Stroke-103" points="0.187 13.623 19.363 13.623 19.363 9.5 0.187 9.5"></polygon>
                    <polygon id="Stroke-103" points="0.187 19.623 19.363 19.623 19.363 15.5 0.187 15.5"></polygon>
                    <polygon id="Stroke-103" points="0.187 7.623 19.363 7.623 19.363 3.5 0.187 3.5"></polygon>
                    <polygon id="Stroke-103" points="0.187 25.623 19.363 25.623 19.363 21.5 0.187 21.5"></polygon>
                </g>
                <g id="Sears-Tower" transform="translate(106.000000, 0.000000)" stroke="#A4E8D5">
                    <polygon id="Stroke-4" points="0.5 179.4998 0.5 85.4998 3.444 85.4998 31.5 85.4998 31.5 179.4998"></polygon>
                    <polygon id="Stroke-5" points="2.5 85.5 29.5 85.5 29.5 48.5 2.5 48.5"></polygon>
                    <polygon id="Stroke-6" points="6.5 48.5 25.5 48.5 25.5 22.5 6.5 22.5"></polygon>
                    <path d="M11.5,0.5 L11.5,21.5" id="Line" stroke-linecap="square"></path>
                    <path d="M20.5,0.5 L20.5,21.5" id="Line" stroke-linecap="square"></path>
                </g>
                <g id="Bean" transform="translate(478.000000, 158.000000)">
                    <path d="M5.69398683,21.3323254 C8.53254067,21.3174431 9.28401759,19.5904431 13.7857714,17.4305607 C16.3568176,16.1972666 18.0329407,15.3936196 20.3791253,15.3302078 C23.6686945,15.2415607 26.3928791,16.6605607 27.8712791,17.4305607 C30.6200176,18.863149 30.8855868,19.8214431 33.5651868,20.7318549 C35.1999561,21.2876784 37.0570022,21.9192078 38.6601099,21.0320902 C40.2464176,20.1546784 40.7038945,18.2788549 41.0573407,16.8307372 C41.2259868,16.1409725 41.8488791,13.4369137 40.7575253,10.5283843 C39.4426022,7.02326662 36.4463868,5.3752078 33.2653714,3.62556074 C30.4054945,2.05256074 26.1919253,-0.264556908 20.3791253,0.0246783862 C15.7203561,0.255678386 12.5703561,2.03509015 8.69084836,4.22603133 C3.95841759,6.89903133 2.27777144,9.22391368 1.4985099,10.5283843 C0.112509903,12.846149 0.000725287262,14.5653843 7.91334163e-05,15.3302078 C-0.00121317428,16.2354431 -0.00379778966,18.3299725 1.4985099,19.831796 C3.01309452,21.3465607 5.13441759,21.3355607 5.69398683,21.3323254" id="Fill-25" fill="#5B9BE7"></path>
                    <path d="M5.69398683,21.3323254 C8.53254067,21.3174431 9.28401759,19.5904431 13.7857714,17.4305607 C16.3568176,16.1972666 18.0329407,15.3936196 20.3791253,15.3302078 C23.6686945,15.2415607 26.3928791,16.6605607 27.8712791,17.4305607 C30.6200176,18.863149 30.8855868,19.8214431 33.5651868,20.7318549 C35.1999561,21.2876784 37.0570022,21.9192078 38.6601099,21.0320902 C40.2464176,20.1546784 40.7038945,18.2788549 41.0573407,16.8307372 C41.2259868,16.1409725 41.8488791,13.4369137 40.7575253,10.5283843 C39.4426022,7.02326662 36.4463868,5.3752078 33.2653714,3.62556074 C30.4054945,2.05256074 26.1919253,-0.264556908 20.3791253,0.0246783862 C15.7203561,0.255678386 12.5703561,2.03509015 8.69084836,4.22603133 C3.95841759,6.89903133 2.27777144,9.22391368 1.4985099,10.5283843 C0.112509903,12.846149 0.000725287262,14.5653843 7.91334163e-05,15.3302078 C-0.00121317428,16.2354431 -0.00379778966,18.3299725 1.4985099,19.831796 C3.01309452,21.3465607 5.13441759,21.3355607 5.69398683,21.3323254 L5.69398683,21.3323254 Z" id="Stroke-27" stroke="#A4E8D5"></path>
                </g>
                <g id="Ferris-Wheel" transform="translate(123.000000, 140.000000)" stroke="#A4E8D5">
                    <ellipse id="Oval" fill="#599AE6" cx="19.5" cy="19.7333333" rx="19.5" ry="19.7333333"></ellipse>
                    <path d="M19.2364865,20 L0.263513514,17.3333333" id="Line" stroke-linecap="square"></path>
                    <path d="M19.2364865,20 L4.47972973,32.2666667" id="Line" stroke-linecap="square"></path>
                    <path d="M19.2364865,20 L8.16891892,4" id="Line" stroke-linecap="square"></path>
                    <path d="M19.2364865,20 L21.8716216,39.2" id="Line" stroke-linecap="square"></path>
                    <path d="M19.2364865,20 L33.9932432,32.2666667" id="Line" stroke-linecap="square"></path>
                    <ellipse id="Oval-2" cx="19.7635135" cy="20" rx="12.3851351" ry="12.5333333"></ellipse>
                    <ellipse id="Oval-2" cx="19.5" cy="20.2666667" rx="6.85135135" ry="6.93333333"></ellipse>
                    <path d="M19.2364865,19.5 L33.9932432,38.7333333" id="Line" stroke-linecap="square"></path>
                    <path d="M19.2364865,20 L5.53378378,39.2" id="Line" stroke-linecap="square"></path>
                    <path d="M19.2364865,20 L38.7364865,20" id="Line" stroke-linecap="square"></path>
                    <path d="M19.2364865,20 L1.84459459,27.4666667" id="Line" stroke-linecap="square"></path>
                    <path d="M19.2364865,20 L0.263513514,22.1333333" id="Line" stroke-linecap="square"></path>
                    <path d="M19.2364865,20 L5.00675676,7.73333333" id="Line" stroke-linecap="square"></path>
                    <path d="M19.2364865,20 L1.84459459,12" id="Line" stroke-linecap="square"></path>
                    <path d="M19.2364865,20 L17.1283784,39.2" id="Line" stroke-linecap="square"></path>
                    <path d="M19.2364865,20 L12.3851351,38.1333333" id="Line" stroke-linecap="square"></path>
                    <path d="M19.2364865,20 L38.2094595,15.2" id="Line" stroke-linecap="square"></path>
                    <path d="M19.2364865,20 L36.6283784,10.9333333" id="Line" stroke-linecap="square"></path>
                    <path d="M19.2364865,20 L38.2094595,24.2666667" id="Line" stroke-linecap="square"></path>
                    <path d="M19.2364865,20 L36.6283784,28.5333333" id="Line" stroke-linecap="square"></path>
                    <path d="M19.2364865,20 L33.9932432,6.66666667" id="Line" stroke-linecap="square"></path>
                    <path d="M19.2364865,20 L30.3040541,3.46666667" id="Line" stroke-linecap="square"></path>
                    <path d="M19.2364865,20 L26.0878378,1.33333333" id="Line" stroke-linecap="square"></path>
                    <path d="M19.2364865,20 L21.3445946,0.266666667" id="Line" stroke-linecap="square"></path>
                    <path d="M19.2364865,20 L17.1283784,0.266666667" id="Line" stroke-linecap="square"></path>
                    <path d="M19.2364865,20 L12.9121622,1.33333333" id="Line" stroke-linecap="square"></path>
                    <path d="M19.2364865,20 L27.1418919,37.6" id="Line" stroke-linecap="square"></path>
                </g>
                <polyline id="Stroke-20" stroke="#A4E8D5" points="610 180 610 175 610 174.338 610 174"></polyline>
                <g id="Building-6" transform="translate(657.000000, 34.000000)" stroke="#A4E8D5">
                    <polygon id="Stroke-21" points="0.5 7.4998 0.5 145.4998 35.5 145.4998 35.5 7.4998 3.668 7.4998"></polygon>
                    <polyline id="Stroke-22" points="2.5 6.9998 2.5 0.4998 32.5 0.4998 32.5 7.9998"></polyline>
                    <g id="Group-3" transform="translate(8.000000, 13.000000)">
                        <path d="M0,0 L0,117" id="Stroke-23"></path>
                        <path d="M19,0 L19,117" id="Stroke-24"></path>
                        <path d="M9,0 L9,117" id="Stroke-25"></path>
                    </g>
                </g>
                <g id="Buiding-7" transform="translate(728.000000, 85.000000)" stroke="#A4E8D5">
                    <polygon id="Stroke-26" points="0.5 94.5 23.5 94.5 23.5 0.5 0.5 0.5"></polygon>
                    <polygon id="Stroke-27" points="4.992 11.083 18.396 11.083 18.396 4.955 4.992 4.955"></polygon>
                    <polygon id="Stroke-28" points="4.992 55.083 18.396 55.083 18.396 48.955 4.992 48.955"></polygon>
                    <polygon id="Stroke-29" points="4.992 44.083 18.396 44.083 18.396 37.955 4.992 37.955"></polygon>
                    <polygon id="Stroke-30" points="4.992 66.083 18.396 66.083 18.396 59.955 4.992 59.955"></polygon>
                    <polygon id="Stroke-31" points="4.992 77.083 18.396 77.083 18.396 70.955 4.992 70.955"></polygon>
                    <polygon id="Stroke-32" points="4.992 33.083 18.396 33.083 18.396 26.955 4.992 26.955"></polygon>
                    <polygon id="Stroke-33" points="4.992 22.083 18.396 22.083 18.396 15.955 4.992 15.955"></polygon>
                </g>
                <g id="Hancock-Building" transform="translate(751.000000, 65.000000)" stroke="#A4E8D5">
                    <polygon id="Stroke-14" points="7.5275 24.4998 0.8695 114.4998 28.9995 114.4998 23.7095 24.4998"></polygon>
                    <path d="M11.5,-0.0002 L11.5,24.9998" id="Stroke-15"></path>
                    <path d="M19.5,-0.0002 L19.5,24.9998" id="Stroke-16"></path>
                    <polyline id="Stroke-50" points="7.5275 24.4998 24.0000008 37.0000003 5.99999984 52.0000003 26.0000008 69.4998 3.50000008 87.9999984 28.0000001 104.999998 16.5000001 113.999998"></polyline>
                    <polyline id="Stroke-51" points="23.7094 24.4998 7 37.5000003 25 51.5000003 5 69.4998 27 87.9999984 2 105.499998 17 114.499998"></polyline>
                </g>
                <g id="Building-8" transform="translate(633.000000, 72.000000)" stroke="#A4E8D5">
                    <polygon id="Stroke-52" points="0.5 15.9998 0.5 107.4998 19.5 107.4998 19.5 13.9998 10 0.9668"></polygon>
                    <path d="M9.5,13.9998 L9.5,94.9998" id="Stroke-53"></path>
                </g>
                <polygon id="Stroke-63" stroke="#A4E8D5" points="589 179.622 606.729 179.622 606.729 112.5 589 112.5"></polygon>
                <polygon id="Stroke-65" stroke="#A4E8D5" points="693 179.545 710.975 179.545 710.975 132 693 132"></polygon>
                <polygon id="Stroke-69" stroke="#A4E8D5" points="610 179.417 632.161 179.417 632.161 106 610 106"></polygon>
                <g id="Building-9" transform="translate(711.000000, 114.000000)" stroke="#A4E8D5">
                    <polygon id="Stroke-72" points="0.93 65.6 16.4599997 65.6 16.4599997 4.287 0.93 4.287"></polygon>
                    <polygon id="Stroke-74" points="3.638 4.287 13.734 4.287 13.734 0.84 3.638 0.84"></polygon>
                </g>
                <polygon id="Stroke-81" stroke="#A4E8D5" points="781 179.547 796.513 179.547 796.513 111.5 781 111.5"></polygon>
                <polygon id="Stroke-81" stroke="#A4E8D5" points="0 179.547 31 179.547 31 111.5 0 111.5"></polygon>
            </g>
        </g>
    </g>
</svg>